# xmcd
#
# Track frame offsets: 
#        150
#        12570
#        24032
#        34635
#        47925
#        58495
#        69752
#        81867
#        93685
#        105880
#        118350
#        130480
#        141447
#        155892
#        166567
#        180242
#        195057
#        209292
#        223220
#        235912
#
# Disc length: 3319 seconds
#
# Revision: 1
# Processed by: cddbd v1.5.1PL2 Copyright (c) Steve Scherf et al.
# Submitted via: ExactAudioCopy v0.95a5
#
DISCID=160cf514
DTITLE=T-Bone Walker - Sings the Blues
DYEAR=1990
DGENRE=Blues
TTITLE0=Glamour Girl
TTITLE1=Strollin' With Bone
TTITLE2=The Sun Went Down
TTITLE3=You Don't Love Me
TTITLE4=Travelin' Blues
TTITLE5=The Hustle Is On
TTITLE6=Baby Broke My Heart
TTITLE7=Evil Hearted Woman
TTITLE8=Alimony Blues
TTITLE9=Life Is Too Short
TTITLE10=You Don't Understand
TTITLE11=Welcome Baby (Say Pretty Baby)
TTITLE12=Cold Cold Feeling
TTITLE13=News For My Baby
TTITLE14=Get These Blues Off Me
TTITLE15=I Got The Blues Again
TTITLE16=Through With Woman
TTITLE17=Street Walking Woman
TTITLE18=Blues Is A Woman
TTITLE19=I Got The Blues
EXTD=
EXTT0=
EXTT1=
EXTT2=
EXTT3=
EXTT4=
EXTT5=
EXTT6=
EXTT7=
EXTT8=
EXTT9=
EXTT10=
EXTT11=
EXTT12=
EXTT13=
EXTT14=
EXTT15=
EXTT16=
EXTT17=
EXTT18=
EXTT19=
PLAYORDER=
